<svg width="284" height="78" viewBox="0 0 284 78" fill="none" xmlns="http://www.w3.org/2000/svg">
<path d="M52.884 21.2095C57.1675 22.5831 59.9133 25.8799 59.9133 30.7152C59.9133 37.3638 54.6413 41.2101 44.5368 41.2101H24.6572V2.74734H43.4385C53.0488 2.74734 57.9912 6.75845 57.9912 12.7477C57.9912 16.5939 56.0142 19.5611 52.884 21.2095ZM42.3402 9.45085H33.4987V18.5171H42.3402C46.6785 18.5171 49.0399 16.9786 49.0399 13.9565C49.0399 10.9344 46.6785 9.45085 42.3402 9.45085ZM43.8778 34.5066C48.4908 34.5066 50.962 33.078 50.962 29.7812C50.962 26.5393 48.4908 25.0008 43.8778 25.0008H33.4987V34.5066H43.8778Z" fill="black"/>
<path d="M80.103 41.6497C70.7124 41.6497 63.8479 35.3308 63.8479 26.4294C63.8479 17.528 70.7124 11.2091 80.103 11.2091C89.4937 11.2091 96.3032 17.528 96.3032 26.4294C96.3032 35.3308 89.4937 41.6497 80.103 41.6497ZM80.103 34.6165C84.3865 34.6165 87.6265 31.5395 87.6265 26.4294C87.6265 21.3194 84.3865 18.2423 80.103 18.2423C75.8196 18.2423 72.5246 21.3194 72.5246 26.4294C72.5246 31.5395 75.8196 34.6165 80.103 34.6165Z" fill="black"/>
<path d="M111.969 41.6497C106.972 41.6497 101.92 40.276 99.1739 38.4627L102.029 32.3087C104.665 34.0121 108.674 35.1659 112.299 35.1659C116.253 35.1659 117.735 34.1219 117.735 32.4735C117.735 27.6382 99.8878 32.5834 99.8878 20.7699C99.8878 15.1653 104.94 11.2091 113.562 11.2091C117.626 11.2091 122.129 12.1432 124.929 13.7916L122.074 19.8907C119.163 18.2423 116.253 17.6929 113.562 17.6929C109.718 17.6929 108.07 18.9017 108.07 20.4402C108.07 25.4953 125.918 20.605 125.918 32.2538C125.918 37.7484 120.811 41.6497 111.969 41.6497Z" fill="black"/>
<path d="M141.143 41.6497C136.146 41.6497 131.094 40.276 128.348 38.4627L131.204 32.3087C133.84 34.0121 137.848 35.1659 141.473 35.1659C145.427 35.1659 146.91 34.1219 146.91 32.4735C146.91 27.6382 129.062 32.5834 129.062 20.7699C129.062 15.1653 134.114 11.2091 142.736 11.2091C146.8 11.2091 151.303 12.1432 154.104 13.7916L151.248 19.8907C148.337 18.2423 145.427 17.6929 142.736 17.6929C138.892 17.6929 137.244 18.9017 137.244 20.4402C137.244 25.4953 155.092 20.605 155.092 32.2538C155.092 37.7484 149.985 41.6497 141.143 41.6497Z" fill="black"/>
<path d="M204.761 21.2095C209.044 22.5831 211.79 25.8799 211.79 30.7152C211.79 37.3638 206.518 41.2101 196.414 41.2101H176.534V2.74734H195.315C204.926 2.74734 209.868 6.75845 209.868 12.7477C209.868 16.5939 207.891 19.5611 204.761 21.2095ZM194.217 9.45085H185.376V18.5171H194.217C198.555 18.5171 200.917 16.9786 200.917 13.9565C200.917 10.9344 198.555 9.45085 194.217 9.45085ZM195.755 34.5066C200.368 34.5066 202.839 33.078 202.839 29.7812C202.839 26.5393 200.368 25.0008 195.755 25.0008H185.376V34.5066H195.755Z" fill="black"/>
<path d="M220.895 0C223.97 0 226.167 2.14293 226.167 5.27489C226.167 6.70351 225.947 7.7475 224.739 10.7696L221.554 18.6819H216.117L218.478 10.0003C216.721 9.23106 215.568 7.58266 215.568 5.27489C215.568 2.08798 217.874 0 220.895 0Z" fill="black"/>
<path d="M240.947 41.6497C235.949 41.6497 230.897 40.276 228.151 38.4627L231.007 32.3087C233.643 34.0121 237.652 35.1659 241.276 35.1659C245.23 35.1659 246.713 34.1219 246.713 32.4735C246.713 27.6382 228.865 32.5834 228.865 20.7699C228.865 15.1653 233.917 11.2091 242.539 11.2091C246.603 11.2091 251.106 12.1432 253.907 13.7916L251.051 19.8907C248.141 18.2423 245.23 17.6929 242.539 17.6929C238.695 17.6929 237.048 18.9017 237.048 20.4402C237.048 25.4953 254.895 20.605 254.895 32.2538C254.895 37.7484 249.788 41.6497 240.947 41.6497Z" fill="black"/>
<path d="M16.2551 56.1678H17.7439V73.2624H16.011V59.5867L9.2991 71.0889H8.44485L1.7329 59.66V73.2624H0V56.1678H1.48883L8.90858 68.8422L16.2551 56.1678Z" fill="black"/>
<path d="M28.1921 73.3845C24.4334 73.3845 21.651 70.6493 21.651 66.8397C21.651 63.0301 24.4334 60.3193 28.1921 60.3193C31.9508 60.3193 34.7088 63.0301 34.7088 66.8397C34.7088 70.6493 31.9508 73.3845 28.1921 73.3845ZM28.1921 71.846C30.9257 71.846 32.9515 69.8435 32.9515 66.8397C32.9515 63.8359 30.9257 61.8334 28.1921 61.8334C25.4585 61.8334 23.4083 63.8359 23.4083 66.8397C23.4083 69.8435 25.4585 71.846 28.1921 71.846Z" fill="black"/>
<path d="M44.3972 71.2354L45.0074 72.4809C44.324 73.0914 43.2989 73.3845 42.2982 73.3845C39.8819 73.3845 38.5395 72.0169 38.5395 69.6481V61.8823H36.2453V60.417H38.5395V57.6086H40.2724V60.417H44.1776V61.8823H40.2724V69.5504C40.2724 71.0645 41.0535 71.8948 42.4935 71.8948C43.2013 71.8948 43.9091 71.675 44.3972 71.2354Z" fill="black"/>
<path d="M52.9567 73.3845C49.198 73.3845 46.4156 70.6493 46.4156 66.8397C46.4156 63.0301 49.198 60.3193 52.9567 60.3193C56.7154 60.3193 59.4734 63.0301 59.4734 66.8397C59.4734 70.6493 56.7154 73.3845 52.9567 73.3845ZM52.9567 71.846C55.6903 71.846 57.7161 69.8435 57.7161 66.8397C57.7161 63.8359 55.6903 61.8334 52.9567 61.8334C50.2231 61.8334 48.1729 63.8359 48.1729 66.8397C48.1729 69.8435 50.2231 71.846 52.9567 71.846Z" fill="black"/>
<path d="M64.6709 62.9324C65.4764 61.2229 67.1116 60.3193 69.4791 60.3193V62.0044C69.3327 62.0044 69.1862 61.98 69.0642 61.98C66.3794 61.98 64.7442 63.6894 64.7442 66.7176V73.2624H63.0113V60.417H64.6709V62.9324Z" fill="black"/>
<path d="M79.2311 60.3193C82.8922 60.3193 85.6258 62.9568 85.6258 66.8397C85.6258 70.747 82.8922 73.3845 79.2311 73.3845C77.1809 73.3845 75.4236 72.5053 74.3497 70.8447V78H72.6168V60.417H74.2765V62.9568C75.326 61.2473 77.1077 60.3193 79.2311 60.3193ZM79.1091 71.846C81.8182 71.846 83.8928 69.8435 83.8928 66.8397C83.8928 63.8604 81.8182 61.8334 79.1091 61.8334C76.3755 61.8334 74.3253 63.8604 74.3253 66.8397C74.3253 69.8435 76.3755 71.846 79.1091 71.846Z" fill="black"/>
<path d="M93.5777 60.3193C96.8971 60.3193 98.7764 61.98 98.7764 65.3012V73.2624H97.1167V71.2599C96.3357 72.5786 94.8224 73.3845 92.699 73.3845C89.7946 73.3845 88.0129 71.8704 88.0129 69.6481C88.0129 67.67 89.282 66.0094 92.9675 66.0094H97.0435V65.2279C97.0435 63.0301 95.7987 61.8334 93.4068 61.8334C91.7472 61.8334 90.1851 62.4195 89.1356 63.3475L88.3546 62.0532C89.6481 60.9543 91.5519 60.3193 93.5777 60.3193ZM92.9675 72.0169C94.9201 72.0169 96.3601 71.0889 97.0435 69.4039V67.3037H93.0163C90.5268 67.3037 89.7214 68.2805 89.7214 69.5992C89.7214 71.0889 90.9173 72.0169 92.9675 72.0169Z" fill="black"/>
<path d="M105.143 62.9324C105.948 61.2229 107.584 60.3193 109.951 60.3193V62.0044C109.805 62.0044 109.658 61.98 109.536 61.98C106.851 61.98 105.216 63.6894 105.216 66.7176V73.2624H103.483V60.417H105.143V62.9324Z" fill="black"/>
<path d="M119.787 71.2354L120.398 72.4809C119.714 73.0914 118.689 73.3845 117.688 73.3845C115.272 73.3845 113.93 72.0169 113.93 69.6481V61.8823H111.635V60.417H113.93V57.6086H115.663V60.417H119.568V61.8823H115.663V69.5504C115.663 71.0645 116.444 71.8948 117.884 71.8948C118.592 71.8948 119.299 71.675 119.787 71.2354Z" fill="black"/>
<path d="M126.994 73.3845C124.87 73.3845 122.82 72.7007 121.771 71.7971L122.552 70.4296C123.577 71.2354 125.31 71.8704 127.116 71.8704C129.556 71.8704 130.557 71.0401 130.557 69.7702C130.557 66.4245 122.234 69.062 122.234 63.9825C122.234 61.8823 124.04 60.3193 127.311 60.3193C128.971 60.3193 130.777 60.7833 131.851 61.516L131.094 62.908C129.971 62.1265 128.629 61.809 127.311 61.809C124.992 61.809 123.967 62.7126 123.967 63.9336C123.967 67.4014 132.29 64.7884 132.29 69.7213C132.29 71.9436 130.337 73.3845 126.994 73.3845Z" fill="black"/>
<path d="M146.372 60.3193C149.692 60.3193 151.571 61.98 151.571 65.3012V73.2624H149.911V71.2599C149.13 72.5786 147.617 73.3845 145.494 73.3845C142.589 73.3845 140.807 71.8704 140.807 69.6481C140.807 67.67 142.077 66.0094 145.762 66.0094H149.838V65.2279C149.838 63.0301 148.593 61.8334 146.201 61.8334C144.542 61.8334 142.98 62.4195 141.93 63.3475L141.149 62.0532C142.443 60.9543 144.347 60.3193 146.372 60.3193ZM145.762 72.0169C147.715 72.0169 149.155 71.0889 149.838 69.4039V67.3037H145.811C143.321 67.3037 142.516 68.2805 142.516 69.5992C142.516 71.0889 143.712 72.0169 145.762 72.0169Z" fill="black"/>
<path d="M162.819 60.3193C165.943 60.3193 168.091 62.1265 168.091 65.814V73.2624H166.358V65.985C166.358 63.2743 164.942 61.8823 162.502 61.8823C159.744 61.8823 158.011 63.5917 158.011 66.5222V73.2624H156.278V60.417H157.937V62.7858C158.865 61.2229 160.598 60.3193 162.819 60.3193Z" fill="black"/>
<path d="M182.826 55.1421H184.559V73.2624H182.899V70.7226C181.849 72.4565 180.068 73.3845 177.944 73.3845C174.283 73.3845 171.55 70.7226 171.55 66.8397C171.55 62.9568 174.283 60.3193 177.944 60.3193C179.994 60.3193 181.752 61.1985 182.826 62.8591V55.1421ZM178.091 71.846C180.8 71.846 182.85 69.8435 182.85 66.8397C182.85 63.8359 180.8 61.8334 178.091 61.8334C175.357 61.8334 173.307 63.8359 173.307 66.8397C173.307 69.8435 175.357 71.846 178.091 71.846Z" fill="black"/>
<path d="M209.782 73.2624H207.805L203.9 67.7677C203.461 67.8165 203.021 67.841 202.533 67.841H197.945V73.2624H196.139V56.1678H202.533C206.878 56.1678 209.514 58.3657 209.514 62.0288C209.514 64.7151 208.098 66.5955 205.608 67.4014L209.782 73.2624ZM202.484 66.3024C205.901 66.3024 207.707 64.7151 207.707 62.0288C207.707 59.2937 205.901 57.7307 202.484 57.7307H197.945V66.3024H202.484Z" fill="black"/>
<path d="M224.613 66.8397C224.613 66.9862 224.589 67.1816 224.589 67.377H213.85C214.045 70.0632 216.095 71.846 218.902 71.846C220.464 71.846 221.855 71.2843 222.831 70.1609L223.808 71.2843C222.661 72.6518 220.879 73.3845 218.853 73.3845C214.85 73.3845 212.117 70.6493 212.117 66.8397C212.117 63.0301 214.777 60.3193 218.389 60.3193C222.002 60.3193 224.613 62.9812 224.613 66.8397ZM218.389 61.809C215.9 61.809 214.069 63.5673 213.85 66.0827H222.954C222.734 63.5673 220.903 61.809 218.389 61.809Z" fill="black"/>
<path d="M234.755 60.3193C238.416 60.3193 241.149 62.9568 241.149 66.8397C241.149 70.747 238.416 73.3845 234.755 73.3845C232.705 73.3845 230.947 72.5053 229.873 70.8447V78H228.14V60.417H229.8V62.9568C230.85 61.2473 232.631 60.3193 234.755 60.3193ZM234.633 71.846C237.342 71.846 239.416 69.8435 239.416 66.8397C239.416 63.8604 237.342 61.8334 234.633 61.8334C231.899 61.8334 229.849 63.8604 229.849 66.8397C229.849 69.8435 231.899 71.846 234.633 71.846Z" fill="black"/>
<path d="M249.101 60.3193C252.421 60.3193 254.3 61.98 254.3 65.3012V73.2624H252.64V71.2599C251.859 72.5786 250.346 73.3845 248.223 73.3845C245.318 73.3845 243.536 71.8704 243.536 69.6481C243.536 67.67 244.806 66.0094 248.491 66.0094H252.567V65.2279C252.567 63.0301 251.322 61.8334 248.93 61.8334C247.271 61.8334 245.709 62.4195 244.659 63.3475L243.878 62.0532C245.172 60.9543 247.076 60.3193 249.101 60.3193ZM248.491 72.0169C250.444 72.0169 251.884 71.0889 252.567 69.4039V67.3037H248.54C246.05 67.3037 245.245 68.2805 245.245 69.5992C245.245 71.0889 246.441 72.0169 248.491 72.0169Z" fill="black"/>
<path d="M259.885 57.6086C259.178 57.6086 258.616 57.047 258.616 56.3632C258.616 55.7038 259.178 55.1421 259.885 55.1421C260.593 55.1421 261.155 55.6794 261.155 56.3388C261.155 57.047 260.618 57.6086 259.885 57.6086ZM259.007 73.2624V60.417H260.74V73.2624H259.007Z" fill="black"/>
<path d="M267.221 62.9324C268.027 61.2229 269.662 60.3193 272.029 60.3193V62.0044C271.883 62.0044 271.736 61.98 271.614 61.98C268.93 61.98 267.294 63.6894 267.294 66.7176V73.2624H265.561V60.417H267.221V62.9324Z" fill="black"/>
<path d="M278.704 73.3845C276.58 73.3845 274.53 72.7007 273.481 71.7971L274.262 70.4296C275.287 71.2354 277.02 71.8704 278.826 71.8704C281.266 71.8704 282.267 71.0401 282.267 69.7702C282.267 66.4245 273.944 69.062 273.944 63.9825C273.944 61.8823 275.75 60.3193 279.021 60.3193C280.681 60.3193 282.487 60.7833 283.561 61.516L282.804 62.908C281.681 62.1265 280.339 61.809 279.021 61.809C276.702 61.809 275.677 62.7126 275.677 63.9336C275.677 67.4014 284 64.7884 284 69.7213C284 71.9436 282.047 73.3845 278.704 73.3845Z" fill="black"/>
</svg>
